<?xml version="1.0" encoding="UTF-8"?>
<svg xmlns="http://www.w3.org/2000/svg" xmlns:xlink="http://www.w3.org/1999/xlink" viewBox="0 0 207.29 156.05">
  <defs>
    <style>
      .cls-1 {
        fill: url(#linear-gradient-4);
      }

      .cls-1, .cls-2, .cls-3, .cls-4, .cls-5, .cls-6, .cls-7, .cls-8, .cls-9, .cls-10, .cls-11, .cls-12 {
        fill-rule: evenodd;
      }

      .cls-2 {
        fill: #f8bc00;
      }

      .cls-3 {
        fill: url(#linear-gradient-2);
      }

      .cls-4 {
        fill: url(#linear-gradient);
      }

      .cls-5 {
        fill: url(#linear-gradient-9);
      }

      .cls-6 {
        fill: url(#linear-gradient-6);
      }

      .cls-7 {
        fill: url(#linear-gradient-5);
      }

      .cls-13 {
        fill: none;
        isolation: isolate;
      }

      .cls-8 {
        fill: url(#linear-gradient-10);
      }

      .cls-9 {
        fill: #6f4834;
        mix-blend-mode: multiply;
        opacity: .6;
      }

      .cls-10 {
        fill: url(#linear-gradient-7);
      }

      .cls-11 {
        fill: url(#linear-gradient-8);
      }

      .cls-12 {
        fill: url(#linear-gradient-3);
      }
    </style>
    <linearGradient id="linear-gradient" x1="28.68" y1="79.35" x2="10.66" y2="130.49" gradientUnits="userSpaceOnUse">
      <stop offset="0" stop-color="#906f02"/>
      <stop offset="1" stop-color="#f8bc00"/>
    </linearGradient>
    <linearGradient id="linear-gradient-2" x1="22.4" y1="40.98" x2="19.03" y2="67.19" xlink:href="#linear-gradient"/>
    <linearGradient id="linear-gradient-3" x1="105.63" y1="32.42" x2="96.18" y2="40.73" xlink:href="#linear-gradient"/>
    <linearGradient id="linear-gradient-4" x1="182.01" y1="125.72" x2="179.69" y2="105.77" xlink:href="#linear-gradient"/>
    <linearGradient id="linear-gradient-5" x1="168.1" y1="108.83" x2="162.97" y2="84.12" xlink:href="#linear-gradient"/>
    <linearGradient id="linear-gradient-6" x1="145.2" y1="100.37" x2="152.5" y2="57.77" xlink:href="#linear-gradient"/>
    <linearGradient id="linear-gradient-7" x1="69.21" y1="105.04" x2="77.38" y2="57.41" xlink:href="#linear-gradient"/>
    <linearGradient id="linear-gradient-8" x1="73.91" y1="59.02" x2="73.26" y2="76.16" xlink:href="#linear-gradient"/>
    <linearGradient id="linear-gradient-9" x1="109.93" y1="100.73" x2="118.1" y2="53.1" xlink:href="#linear-gradient"/>
    <linearGradient id="linear-gradient-10" x1="114.63" y1="54.71" x2="113.98" y2="71.85" xlink:href="#linear-gradient"/>
  </defs>
  <g class="cls-13">
    <g id="Layer_2" data-name="Layer 2">
      <g id="OBJECTS">
        <g>
          <path class="cls-9" d="m37.42,81.62c-4.61.47-12.2,3.97-16.49,6.72-.16.14-.31.24-.43.28-.12.48-.24.96-.36,1.45-3.09,12.83-12.3,51.5-.61,63.92,0,0,1.06,2.61-.94,1.95C-1.58,149.33,1.61,126.82,3.2,114.82c2.66-20.07,10.76-48.83,15.38-63.33-16.15,2.68-15.93-13.71-14.9-12.07,2.43,3.91,15.33,1.58,18.08.22-.04-.64-.06-1.33-.05-2.1.01-1.34.12-4.28,1.59-4.42,2.09-.21,5.81,1.8,7.66,3.18,8.03-3.42,54.92-14.59,63.08-17.68,6.11-2.32,9.15-1.81,13.7,5.21,1.61,2.48,3.81,6.87,4.31,9.83.12.71-.17,1.42-.86,2.13-2.26,2.31-8.62,4.57-11.84,3.97-.56-.1-.91-.35-1.04-.73,1.89-1,4.46-2.65,5.14-5.09-10.95,1.93-60.36,11.78-70.92,15.18-3.05,8.46-6.08,16.86-8.81,25.5,2.72-1.97,9.21-5.86,12.48-6.19,5.09-.52,8.8,11.74,8.15,15.68-.1.61-.32.93-.65.97-.47.05-.77-.16-.92-.63-.79-2.91-3.27-3.03-5.36-2.82Zm131.16,35.8c-25.5,2.99-80.99,19.64-112.15,24.61-17.11,2.73-35.97-4.66-26.01-31.04,0,0,.32-.85,1.22-1.1.9-.25,2.08.92,1.78,2.41-2.57,10.52,11.61,11.28,28.52,9.04,34.84-4.61,67.74-10.53,100.23-14.76-6.59-18.01-2.94-26.34-2.24-34.05-3.19,7.04-6.31,13.58-10.07,20.35-10.4,18.76-21.91,13.59-20.75-6.5.76-13.18,10.94-40.64,26.83-37.67,2.75.51,5.12,1.7,7.1,3.56,1.89-9.18,7.34-28.49,15.67-43.31,5.45-9.7,13.28-8.25,17.14-1.87,2.76,4.57-1.54,1.92-3.08,4.96-13.18,26.11-27.74,63.91-20.12,93.4,67.7-5.81,19.36,47.28-4.07,11.97Zm-18.38-52.76c-4.45,6.95-7.81,15.33-9.31,23.46-2.42,13.06,1.99,7.9,6.13.75,4.12-7.13,8-14.33,11.84-21.61,6.22-11.77-.86-14.77-8.66-2.59Zm27,52.07c11.48,21.53,39.17-4.33,0,0h0Zm-91.51-49.05c.14,1.07.23,2.17.26,3.28.02.56.02,1.12,0,1.68-.12,6.75-2,13.85-4.28,19.12-.46,1.06-.95,2.08-1.47,3.06-.02.03-.04.06-.06.1-.5.94-1.03,1.85-1.59,2.73,0,0,0,0,0,.01,0,0,0,0,0,0-1.15,1.8-2.43,3.46-3.82,4.97-2.81,3.04-5.87,4.85-9.18,5.42-2.23.41-4.53-.13-6.91-1.62s-4.39-3.69-6.03-6.6c-8.74-15.45,2.51-39.39,14.67-44.5,2.8-1.18,5.4-1.42,7.79-.73,3.69,1.07,5.89,3.16,6.73,7.27,2.02-.47,3.09,1.49,3.62,4.22.1.52.19,1.05.26,1.59Zm-22.62,32.3h0c.79.14,1.74-.15,2.85-.96.02-.02.05-.04.07-.05.16-.12.32-.24.48-.38.05-.04.1-.09.15-.13.14-.12.28-.25.43-.39.06-.06.13-.13.2-.19.13-.13.27-.27.4-.41.08-.08.15-.17.23-.25.13-.14.26-.29.39-.44.09-.1.17-.2.26-.31.13-.15.26-.31.39-.48.09-.12.19-.23.28-.36.13-.17.26-.35.4-.52.1-.13.2-.26.3-.4.14-.19.27-.38.41-.58.1-.15.2-.29.31-.44.14-.21.29-.43.43-.65.1-.16.21-.31.31-.47.16-.25.33-.51.49-.78.09-.15.18-.29.27-.44.26-.42.52-.86.79-1.32,1.16-2.07,2.04-3.94,2.65-5.62,0,0-.03.03-.06.05-.01,0-.03.02-.05.03-.02.02-.05.03-.08.05-.02,0-.02.01-.04.02,0,0-.03.01-.04.02-.08.04-.17.09-.28.14-.03.01-.06.03-.08.04-.11.05-.22.1-.35.16-.03.01-.06.02-.09.04-.15.06-.32.12-.49.18-.05.02-.09.03-.14.05-.18.06-.38.12-.58.17-.04.01-.09.02-.13.03-.21.05-.42.1-.65.13-.02,0-.05,0-.07.01-.24.04-.49.07-.74.09-.05,0-.1,0-.16.01-.25.02-.51.02-.78.01-.05,0-.1,0-.15,0-.28-.01-.57-.04-.86-.08-.76-.12-1.33-.36-.58-.95,4.59-3.67,5.68-14.5,6.17-19.4.02-.24.04-.46.04-.66,0-.07,0-.13,0-.19,0-.13,0-.25-.01-.37,0-.06-.01-.12-.02-.18-.01-.1-.03-.2-.05-.29,0-.05-.02-.09-.03-.14-.03-.1-.06-.19-.1-.28,0-.02-.01-.04-.02-.05-.05-.09-.1-.17-.16-.24-.02-.02-.04-.03-.05-.05-.05-.04-.09-.08-.15-.11-.02-.01-.05-.03-.08-.04-.79-.35-2.13.64-3.12,1.61-11.31,11.17-14.2,34.72-8.53,35.76Zm44.94-48.97c2.8-1.18,5.39-1.42,7.79-.73,3.69,1.07,5.89,3.16,6.73,7.27,2.02-.47,3.09,1.49,3.62,4.22.2,1.04.34,2.12.43,3.21.08,1.09.12,2.21.1,3.33-.12,6.75-2,13.85-4.28,19.12-.46,1.05-.94,2.07-1.46,3.05-.23.43-.49.83-.73,1.25-.3.53-.6,1.07-.92,1.58,0,0,0,.01,0,.02,0,0,0,0,0,0-1.15,1.8-2.43,3.46-3.82,4.97-2.81,3.04-5.87,4.85-9.18,5.42-2.23.41-4.53-.13-6.91-1.62-2.38-1.49-4.39-3.69-6.04-6.6-8.74-15.45,2.51-39.39,14.67-44.5Zm4.31,8.9c-11.31,11.17-14.2,34.73-8.53,35.76.79.14,1.74-.15,2.85-.96.02-.01.03-.03.05-.04.16-.12.33-.25.5-.4.04-.04.08-.08.13-.11.15-.13.3-.26.45-.41.06-.06.12-.12.18-.18.14-.14.28-.28.42-.43.07-.08.14-.15.21-.23.14-.15.27-.3.41-.46.08-.09.16-.19.24-.28.13-.16.27-.33.41-.5.09-.11.18-.22.27-.34.14-.17.27-.36.41-.55.09-.12.19-.25.28-.38.14-.19.29-.4.43-.61.1-.14.19-.27.29-.42.15-.22.3-.45.46-.68.1-.14.19-.29.29-.43.17-.26.34-.54.52-.82.09-.14.17-.26.25-.4.26-.42.52-.86.79-1.32,1.16-2.07,2.04-3.94,2.65-5.62,0,0-.03.03-.06.05,0,0-.02.01-.03.02-.03.02-.07.04-.11.07,0,0-.01,0-.02.01,0,0-.01,0-.02,0-.08.05-.19.1-.31.16-.01,0-.03.01-.04.02-.12.06-.26.12-.42.18-.02,0-.03.01-.04.02-.16.06-.33.13-.52.19-.04.01-.07.02-.11.04-.19.06-.39.12-.61.18-.04,0-.07.02-.11.03-.21.05-.44.1-.67.14-.02,0-.04,0-.05.01-.24.04-.49.07-.75.09-.05,0-.1,0-.15.01-.25.02-.52.02-.78.01-.05,0-.1,0-.15,0-.28-.01-.57-.04-.86-.08-.77-.12-1.33-.36-.58-.95,4.59-3.67,5.68-14.5,6.17-19.4.02-.24.04-.46.04-.67,0-.06,0-.12,0-.17,0-.14,0-.27-.01-.39,0-.06,0-.11-.02-.17-.01-.11-.03-.21-.05-.3,0-.04-.02-.09-.03-.13-.03-.1-.06-.2-.1-.28,0-.02-.01-.04-.02-.05-.05-.09-.1-.17-.16-.24-.02-.02-.03-.03-.05-.05-.05-.04-.1-.08-.15-.11-.02-.01-.05-.02-.07-.04-.79-.35-2.13.63-3.12,1.61Z"/>
          <path class="cls-2" d="m28.97,34.3c8.03-3.42,54.92-14.59,63.08-17.68,6.11-2.32,9.15-1.81,13.7,5.21,1.61,2.48,3.81,6.87,4.31,9.83.12.71-.17,1.42-.86,2.13-2.26,2.31-8.62,4.57-11.84,3.97-.56-.1-.91-.35-1.04-.73,1.89-1,4.46-2.65,5.14-5.09-10.95,1.93-60.36,11.78-70.92,15.18-3.05,8.46-6.08,16.86-8.81,25.5,2.72-1.97,9.21-5.86,12.48-6.19,5.09-.52,8.8,11.74,8.15,15.68-.1.61-.32.93-.65.97-.47.05-.77-.16-.92-.63-.79-2.91-3.27-3.03-5.36-2.82-4.61.47-12.2,3.97-16.49,6.72-.16.14-.31.24-.43.28-.12.48-.24.96-.36,1.45-3.09,12.83-12.3,51.5-.61,63.92,0,0,1.06,2.61-.94,1.95C-3.58,147.33-.39,124.82,1.2,112.82c2.66-20.07,10.76-48.83,15.38-63.33C.44,52.17.66,35.77,1.68,37.42c2.43,3.91,15.33,1.58,18.08.22-.04-.64-.06-1.33-.05-2.1.01-1.34.12-4.28,1.59-4.42,2.09-.21,5.81,1.8,7.66,3.18Z"/>
          <path class="cls-4" d="m18.48,86.72c-.11.45-.22.9-.33,1.36-3.09,12.83-12.3,51.5-.61,63.92,0,0,1.06,2.61-.94,1.95-9.98-3.27-14.24-10.44-15.8-18.3-.16-.99-.32-2.02-.48-3.09-.6-5.26-.21-10.65.33-15.24,3.33-17.54,15.91-28.94,17.85-30.6Z"/>
          <path class="cls-3" d="m30.53,47.11c-3.05,8.46-6.08,16.86-8.81,25.5l-12.72,3.2c2.69-10.27,5.49-19.76,7.58-26.32l13.94-2.38Z"/>
          <path class="cls-12" d="m107.03,35.36c-2.9,1.63-7.21,2.85-9.68,2.39-.56-.1-.91-.35-1.04-.73,1.89-1,4.46-2.65,5.14-5.09,0,0,8.38-1.48,5.58,3.43Z"/>
          <path class="cls-2" d="m170.65,103.45c67.7-5.81,19.36,47.28-4.07,11.97-25.5,2.99-80.99,19.64-112.15,24.61-17.11,2.73-35.97-4.66-26.01-31.04,0,0,.32-.85,1.22-1.1.9-.25,2.08.92,1.78,2.41-2.57,10.52,11.61,11.28,28.52,9.04,34.84-4.61,67.74-10.53,100.23-14.76-6.59-18.01-2.94-26.34-2.24-34.05-3.19,7.04-6.31,13.58-10.07,20.35-10.4,18.76-21.91,13.59-20.75-6.5.76-13.18,10.94-40.64,26.83-37.67,2.75.51,5.12,1.7,7.1,3.56,1.89-9.18,7.34-28.49,15.67-43.31,5.45-9.7,13.28-8.25,17.14-1.87,2.76,4.57-1.54,1.92-3.08,4.96-13.18,26.11-27.74,63.91-20.12,93.4h0Zm4.55,11.28c11.48,21.53,39.17-4.33,0,0h0Zm-30.19-27.86c4.12-7.13,8-14.33,11.84-21.61,6.22-11.77-.86-14.77-8.66-2.59-4.45,6.95-7.81,15.33-9.31,23.46-2.42,13.06,1.99,7.9,6.13.75Z"/>
          <path class="cls-1" d="m182.4,127.15c-5.52-1.19-11.16-4.7-15.82-11.72l8.62-.7c6.95,13.04,19.84,8.7,20.24,4.21h0s-.56,8.71-13.04,8.21Z"/>
          <path class="cls-7" d="m160.17,104.58c-3.84-10.49-4.2-17.69-3.7-23.41l12.62-5.49c-1.01,9.64-.69,19.07,1.56,27.77l-10.48,1.13Z"/>
          <path class="cls-6" d="m157.93,70.54c-3.19,7.04-6.31,13.58-10.07,20.35,0,0-4.24,5.27-8.83,3.27,1.23.14,3.65-3.25,5.99-7.29,4.12-7.13,8-14.33,11.84-21.61.95-1.8,1.59-3.39,1.96-4.75h0l-.89,10.03h0Zm-19.24,23.46h0s0,0,0,0h0Z"/>
          <g>
            <path class="cls-2" d="m79.68,89.76c-1.82,4.21-4.14,7.83-6.94,10.87-2.81,3.04-5.87,4.85-9.18,5.42-2.23.41-4.53-.13-6.91-1.62s-4.39-3.69-6.03-6.6c-8.74-15.45,2.51-39.39,14.67-44.5,2.8-1.18,5.4-1.42,7.79-.73,3.69,1.07,5.89,3.16,6.73,7.27,2.02-.47,3.09,1.49,3.62,4.22,1.62,8.35-.71,18.64-3.75,25.67h0Zm-8.76-1.71c1.16-2.07,2.04-3.94,2.65-5.62-.1.13-2.78,1.63-5.82,1.14-.76-.12-1.33-.36-.58-.95,4.59-3.67,5.68-14.5,6.17-19.4.42-4.2-2.12-2.57-3.74-.98-15.51,15.31-15.19,53.93,1.32,25.82Z"/>
            <path class="cls-10" d="m79.68,89.76c-.91,2.11-1.95,4.08-3.12,5.9-7.26,4.83-15.5,2.33-15.5,2.33h0c2.1.38,5.38-2.33,9.85-9.94,1.16-2.07,2.04-3.94,2.65-5.62-.08.05-.15.1-.23.15.13-.08.21-.13.23-.15,8.6-5.61,6.24-22.55,6.24-22.55,2.02-.47,3.09,1.49,3.62,4.22,1.62,8.35-.71,18.64-3.75,25.67Z"/>
            <path class="cls-11" d="m67.75,83.56c2.56.42,4.87-.58,5.59-.99l.23-.15c3.63-2.37,5.31-6.77,6.04-11.06.62-11.97-6.96-10.79-6.96-10.79.54.18.86.92.69,2.63-.49,4.91-1.58,15.73-6.17,19.4-.75.6-.18.83.58.95Z"/>
          </g>
          <g>
            <path class="cls-2" d="m120.4,85.45c-1.82,4.2-4.14,7.83-6.94,10.87-2.81,3.04-5.87,4.85-9.18,5.42-2.23.41-4.53-.13-6.91-1.62-2.38-1.49-4.39-3.69-6.04-6.6-8.74-15.45,2.51-39.39,14.67-44.5,2.8-1.18,5.39-1.42,7.79-.73,3.69,1.07,5.89,3.16,6.73,7.27,2.02-.47,3.09,1.49,3.62,4.22,1.62,8.35-.71,18.64-3.75,25.67h0Zm-8.76-1.71c1.16-2.07,2.04-3.94,2.65-5.62-.1.13-2.78,1.63-5.82,1.14-.77-.12-1.33-.36-.58-.95,4.59-3.67,5.68-14.5,6.17-19.4.42-4.2-2.12-2.57-3.74-.98-15.51,15.31-15.19,53.93,1.32,25.82Z"/>
            <path class="cls-5" d="m120.4,85.45c-.91,2.11-1.95,4.08-3.12,5.9-7.26,4.83-15.5,2.33-15.5,2.33h0c2.1.38,5.38-2.34,9.85-9.94,1.16-2.07,2.04-3.94,2.65-5.62-.08.05-.15.1-.23.15.13-.08.21-.13.23-.15,8.6-5.61,6.24-22.55,6.24-22.55,2.02-.47,3.09,1.49,3.62,4.22,1.62,8.35-.71,18.64-3.75,25.67Z"/>
            <path class="cls-8" d="m108.48,79.25c2.56.42,4.87-.58,5.59-.99l.23-.15c3.63-2.37,5.31-6.77,6.03-11.06.62-11.97-6.96-10.79-6.96-10.79.54.18.86.92.69,2.63-.49,4.91-1.58,15.73-6.17,19.4-.75.6-.18.83.58.95Z"/>
          </g>
        </g>
      </g>
    </g>
  </g>
</svg>